<?xml version="1.0" standalone="no"?>
<!DOCTYPE svg PUBLIC "-//W3C//DTD SVG 20010904//EN"
 "http://www.w3.org/TR/2001/REC-SVG-20010904/DTD/svg10.dtd">
<svg version="1.0" xmlns="http://www.w3.org/2000/svg"
 width="512.000000pt" height="512.000000pt" viewBox="0 0 512.000000 512.000000"
 preserveAspectRatio="xMidYMid meet">

<g transform="translate(0.000000,512.000000) scale(0.100000,-0.100000)"
fill="#000000" stroke="none">
<path d="M2295 5105 c-904 -106 -1699 -694 -2076 -1535 -90 -200 -179 -504
-181 -614 0 -32 6 -45 31 -68 70 -62 149 -22 171 88 109 551 395 1033 830
1396 616 515 1447 679 2195 433 304 -100 608 -272 835 -474 l45 -40 -225 -225
-225 -225 -65 50 c-262 199 -576 221 -851 59 -121 -72 -262 -204 -350 -329
-23 -33 -46 -61 -50 -61 -3 0 -48 20 -100 44 -119 55 -250 100 -387 133 -147
34 -400 43 -523 18 -310 -62 -519 -257 -601 -560 -32 -118 -32 -395 0 -544 82
-375 284 -745 558 -1017 l82 -82 -290 -288 -289 -289 -40 45 c-73 82 -183 234
-247 340 -147 244 -246 499 -302 784 -22 110 -101 150 -171 88 -38 -34 -40
-63 -9 -207 167 -772 749 -1477 1491 -1806 793 -351 1671 -274 2401 212 421
279 775 704 967 1161 403 952 186 2012 -563 2764 -399 400 -899 656 -1446 739
-148 22 -465 28 -615 10z m2068 -1042 c287 -346 461 -730 533 -1178 26 -155
26 -497 1 -650 -66 -403 -213 -751 -453 -1075 -99 -134 -348 -383 -484 -484
-322 -239 -672 -387 -1075 -453 -152 -24 -485 -24 -645 0 -444 69 -837 247
-1182 535 -43 36 -78 68 -78 71 0 3 133 139 296 302 l296 296 126 -64 c187
-93 283 -116 487 -116 180 0 248 13 400 78 l84 36 104 -35 c293 -101 639 -81
899 50 312 157 521 475 573 871 59 453 -77 988 -351 1369 l-56 77 224 224
c122 122 226 223 230 223 3 0 35 -35 71 -77z m-1088 -218 c74 -19 188 -75 238
-118 l38 -32 -295 -295 -295 -294 -108 105 c-59 58 -150 135 -200 173 -51 38
-93 71 -93 74 0 15 118 157 169 205 177 164 367 227 546 182z m-1436 -300
c236 -53 503 -178 711 -334 85 -64 260 -228 260 -245 0 -6 -283 -294 -630
-641 l-630 -630 -81 80 c-246 243 -425 567 -501 907 -30 135 -32 367 -4 468
61 222 211 362 441 410 64 14 350 4 434 -15z m1925 -93 c218 -327 333 -796
286 -1162 -26 -195 -108 -403 -210 -527 -104 -128 -269 -232 -435 -273 -147
-38 -365 -37 -497 2 l-37 11 48 43 c92 83 214 253 268 374 53 120 75 217 80
365 8 216 -24 354 -130 558 l-51 98 305 305 c167 167 305 304 306 304 1 0 31
-44 67 -98z m-784 -744 c22 -46 49 -114 61 -153 26 -89 36 -267 20 -359 -30
-173 -125 -347 -263 -483 -89 -89 -149 -132 -250 -184 -126 -64 -212 -83 -363
-83 -152 0 -235 19 -378 86 l-88 42 608 608 c334 334 609 608 611 608 2 0 21
-37 42 -82z"/>
<path d="M51 2646 c-87 -48 -50 -186 49 -186 51 0 100 49 100 99 0 75 -83 124
-149 87z"/>
</g>
</svg>
