<svg id="Capa_1" enable-background="new 0 0 512 512" height="512" viewBox="0 0 512 512" width="512" xmlns="http://www.w3.org/2000/svg"><g><g><path d="m437.019 74.98c-48.352-48.351-112.639-74.98-181.019-74.98s-132.667 26.629-181.019 74.98c-48.353 48.353-74.981 112.64-74.981 181.02s26.628 132.667 74.981 181.02c48.352 48.351 112.639 74.98 181.019 74.98s132.667-26.629 181.019-74.98c48.353-48.353 74.981-112.64 74.981-181.02s-26.628-132.667-74.981-181.02zm-14.142 347.897c-44.574 44.575-103.839 69.123-166.877 69.123s-122.303-24.548-166.877-69.123c-44.575-44.574-69.123-103.839-69.123-166.877s24.548-122.303 69.123-166.877 103.839-69.123 166.877-69.123 122.302 24.549 166.877 69.123 69.123 103.839 69.123 166.877-24.548 122.303-69.123 166.877z"/><path d="m421.337 123.299c-1.78-2.212-4.417-3.563-7.252-3.717-2.833-.152-5.603.906-7.61 2.914l-62.615 62.615c-.569-.247-1.156-.462-1.775-.602-10.307-2.322-20.729-2.538-30.748-.817l78.168-78.167c2.008-2.008 3.067-4.775 2.914-7.61-.153-2.836-1.504-5.473-3.717-7.252-70.516-56.733-169.303-62.365-245.819-14.016-4.669 2.95-6.062 9.127-3.112 13.796s9.128 6.061 13.795 3.112c66.12-41.783 150.608-39.047 213.687 5.937l-69.363 69.362c-1.281-25.544-14.731-48.681-36.546-62.474-3.265-2.064-7.424-2.064-10.688 0-22.953 14.514-36.656 39.369-36.656 66.49 0 5.054.477 10.03 1.4 14.874-14.246-5.469-29.997-6.723-45.485-3.235-3.767.849-6.709 3.791-7.558 7.559-5.335 23.682.409 47.977 15.385 66.564-2.611.321-5.223.769-7.827 1.355-3.767.849-6.709 3.791-7.558 7.559-2.767 12.282-2.551 24.728.382 36.459l-63.248 63.249c-44.976-63.071-47.716-147.55-5.95-213.666 2.949-4.669 1.555-10.846-3.114-13.795-4.668-2.95-10.845-1.556-13.795 3.113-48.333 76.511-42.694 175.288 14.03 245.796 1.78 2.212 4.417 3.563 7.252 3.717.18.01.36.015.54.015 2.645 0 5.19-1.049 7.071-2.929l65.369-65.37c3.404 5.885 7.6 11.387 12.558 16.344.843.843 1.707 1.658 2.581 2.457l-63.538 63.538c-2.008 2.008-3.067 4.775-2.914 7.61.153 2.836 1.504 5.473 3.717 7.252 37.651 30.292 84.396 46.659 132.678 46.658 3.614 0 7.239-.092 10.867-.276 52.485-2.669 101.872-24.62 139.063-61.812 37.191-37.191 59.143-86.579 61.812-139.063 2.65-52.096-13.822-103.074-46.381-143.544zm-90.116 79.633c1.982 17.652-4.074 35.187-16.816 47.928-12.743 12.743-30.278 18.799-47.928 16.816-1.983-17.651 4.073-35.186 16.815-47.928 12.743-12.743 30.275-18.8 47.929-16.816zm-47.929 92.293c12.743-12.742 30.275-18.798 47.929-16.815 1.982 17.652-4.074 35.187-16.816 47.928-12.743 12.743-30.278 18.8-47.928 16.816-1.982-17.653 4.073-35.187 16.815-47.929zm-27.292-168.135c13.883 11.079 22 27.76 22 45.78s-8.117 34.701-22 45.78c-13.883-11.079-22-27.76-22-45.78s8.117-34.701 22-45.78zm-75.221 75.842c17.651-1.982 35.186 4.073 47.928 16.816 12.742 12.742 18.798 30.276 16.815 47.928-17.65 1.98-35.186-4.074-47.928-16.816-12.741-12.742-18.797-30.276-16.815-47.928zm0 75.477c17.654-1.984 35.186 4.073 47.929 16.815 12.742 12.742 18.798 30.277 16.815 47.929-17.65 1.982-35.186-4.074-47.928-16.816-12.742-12.741-18.798-30.275-16.816-47.928zm266.965-12.581c-2.417 47.528-22.297 92.254-55.98 125.937s-78.408 53.563-125.937 55.98c-43.44 2.201-86.007-10.252-121.079-35.239l57.902-57.901c11.157 5.848 23.562 8.925 36.244 8.925 2.361 0 4.731-.112 7.105-.326v33.964c0 5.522 4.477 10 10 10s10-4.478 10-10v-33.964c2.373.214 4.744.326 7.105.326 20.597 0 40.482-8.09 55.442-23.05 19.177-19.177 27.063-46.441 21.095-72.934-.849-3.768-3.791-6.71-7.558-7.559-2.604-.587-5.216-1.034-7.827-1.356 12.094-15.011 18.161-33.743 17.238-52.871l61.011-61.011c24.989 35.072 37.448 77.642 35.239 121.079z"/><circle cx="113.17" cy="113.172" r="10"/></g></g></svg>