<?xml version="1.0" standalone="no"?>
<!DOCTYPE svg PUBLIC "-//W3C//DTD SVG 20010904//EN"
 "http://www.w3.org/TR/2001/REC-SVG-20010904/DTD/svg10.dtd">
<svg version="1.0" xmlns="http://www.w3.org/2000/svg"
 width="512.000000pt" height="512.000000pt" viewBox="0 0 512.000000 512.000000"
 preserveAspectRatio="xMidYMid meet">

<g transform="translate(0.000000,512.000000) scale(0.100000,-0.100000)"
fill="#000000" stroke="none">
<path d="M2330 5110 c-390 -38 -773 -165 -1105 -367 -323 -197 -652 -526 -851
-853 -125 -205 -227 -446 -289 -681 -63 -240 -78 -371 -78 -649 0 -278 15
-409 78 -649 49 -184 92 -299 185 -486 209 -422 532 -780 940 -1039 99 -63
351 -186 471 -230 135 -49 340 -102 499 -128 195 -31 554 -31 755 0 274 43
500 114 750 237 269 132 460 269 681 489 220 221 357 412 489 681 123 250 194
476 237 750 31 201 31 560 0 755 -26 159 -79 364 -128 499 -44 120 -167 372
-230 471 -259 408 -617 731 -1039 940 -254 126 -479 197 -750 240 -147 23
-475 34 -615 20z m435 -240 c485 -45 947 -241 1315 -559 l35 -30 -462 -463
c-255 -255 -463 -469 -463 -476 0 -7 23 -58 51 -114 l51 -101 494 494 495 494
30 -35 c64 -74 188 -244 234 -323 301 -505 402 -1078 289 -1647 -228 -1158
-1307 -1967 -2479 -1860 -485 45 -947 241 -1315 559 l-35 30 368 368 367 368
0 165 0 165 -450 -450 -451 -450 -30 35 c-417 487 -619 1115 -558 1736 66 677
416 1280 977 1681 371 265 840 417 1307 422 66 0 170 -4 230 -9z"/>
<path d="M2216 4298 c-12 -17 -16 -48 -16 -119 0 -144 -26 -134 360 -134 386
0 360 -10 360 134 0 153 31 141 -360 141 -329 0 -329 0 -344 -22z"/>
<path d="M2257 3832 c-9 -171 -36 -266 -134 -464 -150 -306 -181 -379 -203
-486 -19 -97 -20 -133 -20 -1024 l0 -924 23 -44 c16 -33 34 -51 67 -68 44 -22
45 -22 570 -22 525 0 526 0 570 23 33 16 51 34 68 67 l22 44 0 922 c0 981 -1
996 -49 1136 -10 29 -73 166 -139 303 -136 281 -158 351 -169 533 l-6 112
-297 0 -297 0 -6 -108z"/>
</g>
</svg>
