<?xml version="1.0" standalone="no"?>
<!DOCTYPE svg PUBLIC "-//W3C//DTD SVG 20010904//EN"
 "http://www.w3.org/TR/2001/REC-SVG-20010904/DTD/svg10.dtd">
<svg version="1.0" xmlns="http://www.w3.org/2000/svg"
 width="512.000000pt" height="512.000000pt" viewBox="0 0 512.000000 512.000000"
 preserveAspectRatio="xMidYMid meet">

<g transform="translate(0.000000,512.000000) scale(0.100000,-0.100000)"
fill="#000000" stroke="none">
<path d="M2440 4553 c-561 -39 -1065 -294 -1418 -718 -668 -800 -617 -1970
118 -2705 478 -479 1158 -683 1825 -549 432 87 846 333 1126 667 623 745 639
1798 38 2553 -85 107 -258 275 -369 357 -374 280 -866 427 -1320 395z m502
-127 c304 -65 576 -194 817 -386 53 -42 101 -83 108 -91 10 -13 -52 -79 -376
-403 l-387 -387 -13 43 c-34 113 -106 210 -208 278 -104 70 -190 95 -323 95
-121 0 -206 -23 -302 -81 -63 -39 -159 -137 -187 -192 -30 -59 -61 -169 -67
-241 -8 -86 7 -154 68 -316 70 -181 71 -212 18 -350 -52 -137 -68 -193 -76
-271 l-7 -62 -417 -417 -417 -417 -48 54 c-509 562 -623 1408 -285 2104 241
497 702 876 1232 1014 198 51 279 60 528 55 192 -3 242 -7 342 -29z m1101
-666 c575 -712 579 -1700 10 -2413 -387 -485 -1019 -759 -1630 -709 -384 32
-704 151 -1005 374 -45 33 -104 81 -130 106 l-49 46 383 383 c211 211 386 383
389 383 4 0 12 -21 19 -47 42 -170 199 -315 378 -352 76 -16 246 -13 321 4
188 45 335 197 371 382 8 38 11 106 8 170 -6 112 -23 180 -84 323 -45 106 -40
162 30 350 41 109 60 174 63 220 l5 65 411 412 c396 397 412 412 430 395 11
-9 47 -51 80 -92z m-1328 -302 c161 -53 259 -164 301 -343 23 -99 14 -156 -52
-330 -55 -144 -58 -154 -58 -245 -1 -91 1 -99 46 -206 105 -248 87 -460 -51
-601 -167 -169 -524 -165 -685 7 -132 141 -149 340 -49 588 73 184 71 251 -14
472 -56 143 -65 204 -48 301 18 106 55 180 119 245 126 125 317 169 491 112z"/>
<path d="M2450 3379 c-46 -14 -60 -27 -60 -54 0 -41 23 -49 100 -36 53 8 87 8
140 0 56 -10 73 -9 85 1 25 21 15 63 -20 79 -37 18 -196 24 -245 10z"/>
<path d="M2520 3171 c-5 -11 -10 -75 -10 -143 0 -132 11 -168 50 -168 43 0 50
23 50 169 0 93 -4 141 -12 149 -19 19 -66 15 -78 -7z"/>
<path d="M2275 3160 c-15 -17 -19 -43 -23 -150 -5 -139 1 -160 42 -160 37 0
46 20 47 100 0 41 4 100 9 130 12 86 -29 130 -75 80z"/>
<path d="M2781 3166 c-13 -16 -3 -284 12 -303 5 -7 20 -13 32 -13 29 0 41 16
49 67 8 52 -10 232 -25 250 -15 17 -53 17 -68 -1z"/>
<path d="M2318 2697 c-10 -10 -13 -52 -13 -163 l0 -149 28 -3 c41 -5 53 11 67
83 28 146 -23 290 -82 232z"/>
<path d="M2520 2691 c-5 -11 -10 -78 -10 -150 0 -141 7 -161 55 -161 37 0 45
28 45 165 0 69 -5 135 -10 146 -7 12 -21 19 -40 19 -19 0 -33 -7 -40 -19z"/>
<path d="M2753 2703 c-30 -11 -47 -154 -30 -242 13 -70 29 -88 70 -77 30 7 36
27 24 81 -5 22 -6 80 -2 128 8 107 -7 133 -62 110z"/>
<path d="M2796 2227 c-16 -12 -19 -32 -22 -160 -3 -138 -2 -147 17 -157 24
-14 55 -5 65 18 4 9 9 76 12 148 4 129 4 132 -19 148 -28 19 -30 20 -53 3z"/>
<path d="M2259 2208 c-12 -23 -7 -246 6 -281 10 -25 53 -33 72 -14 13 13 16
40 14 154 -1 79 -7 143 -13 150 -17 21 -66 16 -79 -9z"/>
<path d="M2526 2214 c-13 -12 -16 -41 -16 -145 0 -72 5 -139 10 -150 7 -12 21
-19 40 -19 19 0 33 7 40 19 5 11 10 77 10 146 0 69 -5 135 -10 146 -13 23 -53
25 -74 3z"/>
<path d="M2408 1793 c-17 -21 -4 -57 27 -73 38 -19 196 -20 247 -2 40 14 55
41 39 69 -8 16 -27 18 -156 18 -102 0 -150 -4 -157 -12z"/>
</g>
</svg>
