<?xml version="1.0" standalone="no"?>
<!DOCTYPE svg PUBLIC "-//W3C//DTD SVG 20010904//EN"
 "http://www.w3.org/TR/2001/REC-SVG-20010904/DTD/svg10.dtd">
<svg version="1.0" xmlns="http://www.w3.org/2000/svg"
 width="512.000000pt" height="512.000000pt" viewBox="0 0 512.000000 512.000000"
 preserveAspectRatio="xMidYMid meet">

<g transform="translate(0.000000,512.000000) scale(0.100000,-0.100000)"
fill="#000000" stroke="none">
<path d="M2330 5110 c-390 -38 -773 -165 -1105 -367 -323 -197 -652 -526 -851
-853 -125 -205 -227 -446 -289 -681 -63 -240 -78 -371 -78 -649 0 -278 15
-409 78 -649 49 -184 92 -299 185 -486 209 -422 532 -780 940 -1039 99 -63
351 -186 471 -230 135 -49 340 -102 499 -128 195 -31 554 -31 755 0 274 43
500 114 750 237 269 132 460 269 681 489 220 221 357 412 489 681 123 250 194
476 237 750 31 201 31 560 0 755 -26 159 -79 364 -128 499 -44 120 -167 372
-230 471 -259 408 -617 731 -1039 940 -254 126 -479 197 -750 240 -147 23
-475 34 -615 20z m435 -240 c485 -45 947 -241 1315 -559 l35 -30 -563 -564
c-529 -529 -562 -564 -545 -579 25 -22 88 -52 152 -73 l53 -17 535 533 534
534 30 -35 c64 -74 188 -244 234 -323 301 -505 402 -1078 289 -1647 -228
-1158 -1307 -1967 -2479 -1860 -485 45 -947 241 -1315 559 l-35 30 538 538
538 539 -15 41 c-19 55 -43 101 -74 142 l-25 33 -564 -563 -564 -564 -30 35
c-417 486 -619 1115 -558 1736 66 677 416 1280 977 1681 371 265 840 417 1307
422 66 0 170 -4 230 -9z"/>
<path d="M1719 4044 c-150 -32 -296 -113 -413 -230 -325 -325 -328 -809 -8
-1147 100 -105 190 -155 405 -224 273 -87 405 -186 487 -367 17 -37 53 -149
81 -249 28 -100 64 -214 80 -254 75 -179 229 -328 440 -427 151 -70 201 -81
374 -80 134 0 159 3 238 27 149 46 263 113 379 225 116 111 197 244 245 399
24 79 27 104 27 238 1 173 -10 223 -80 374 -93 200 -227 344 -399 428 -80 40
-149 64 -340 118 -203 59 -286 98 -357 170 -70 70 -121 167 -188 360 -68 196
-118 290 -204 382 -200 214 -499 315 -767 257z m-176 -328 c45 -19 68 -48 74
-94 13 -98 -87 -163 -178 -116 -31 16 -59 66 -59 106 0 35 37 88 73 103 41 18
50 18 90 1z m284 -340 c93 -101 -30 -248 -148 -179 -31 18 -59 67 -59 103 0
34 28 79 63 101 48 30 103 20 144 -25z m-387 -34 c35 -26 54 -86 40 -127 -18
-56 -54 -80 -117 -80 -49 0 -58 3 -84 33 -34 38 -39 94 -13 143 29 58 117 73
174 31z"/>
</g>
</svg>
