<?xml version="1.0" standalone="no"?>
<!DOCTYPE svg PUBLIC "-//W3C//DTD SVG 20010904//EN"
 "http://www.w3.org/TR/2001/REC-SVG-20010904/DTD/svg10.dtd">
<svg version="1.0" xmlns="http://www.w3.org/2000/svg"
 width="500.000000pt" height="500.000000pt" viewBox="0 0 500.000000 500.000000"
 preserveAspectRatio="xMidYMid meet">
<metadata>
Created by potrace 1.16, written by Peter Selinger 2001-2019
</metadata>
<g transform="translate(0.000000,500.000000) scale(0.100000,-0.100000)"
fill="#000000" stroke="none">
<path d="M2370 3845 c-8 -2 -55 -9 -105 -15 -354 -48 -715 -254 -947 -541
-164 -203 -264 -413 -320 -674 -31 -146 -31 -423 0 -582 61 -304 200 -569 412
-783 250 -252 526 -392 878 -445 448 -67 930 85 1261 400 235 223 393 510 458
830 25 128 25 422 -1 560 -81 433 -334 798 -716 1036 -225 139 -523 221 -798
218 -59 -1 -114 -3 -122 -4z m425 -65 c298 -63 540 -193 756 -409 214 -215
344 -454 411 -758 18 -82 22 -131 22 -298 1 -216 -12 -300 -68 -469 -131 -391
-454 -739 -828 -896 -388 -162 -788 -162 -1176 0 -446 187 -787 615 -878 1105
-29 153 -27 425 4 564 95 423 344 768 712 986 186 110 347 162 615 199 75 11
334 -4 430 -24z"/>
<path d="M2360 3751 c-98 -11 -176 -27 -278 -57 -512 -153 -901 -591 -998
-1124 -23 -127 -23 -360 0 -495 69 -395 300 -743 641 -965 451 -293 1045 -303
1512 -25 349 207 599 565 680 972 25 125 24 384 -1 518 -54 289 -187 546 -386
746 -187 187 -375 302 -615 375 -160 49 -392 72 -555 55z m271 -92 c534 -54
975 -406 1144 -912 50 -150 68 -267 68 -442 1 -274 -71 -504 -229 -740 -54
-81 -178 -225 -194 -225 -8 0 -456 583 -484 628 -7 12 -1 14 36 8 58 -9 167 9
223 35 54 26 131 91 150 130 20 38 19 135 -2 199 -14 44 -33 68 -109 143 -137
132 -146 160 -129 407 7 115 6 130 -12 171 -27 62 -75 113 -129 139 -104 51
-280 5 -374 -96 -79 -86 -150 -279 -150 -411 l0 -63 -53 53 c-50 49 -581 741
-593 771 -6 16 134 91 242 130 133 48 304 81 445 85 26 0 93 -4 150 -10z
m-637 -666 l300 -396 -23 -16 c-37 -25 -70 -60 -149 -154 -56 -68 -85 -93
-132 -117 -60 -30 -62 -31 -198 -28 -153 3 -181 -5 -261 -78 -54 -48 -64 -79
-59 -178 5 -99 34 -167 105 -246 88 -98 195 -140 357 -140 130 0 228 24 362
89 109 54 164 95 225 168 33 40 105 167 121 213 2 7 25 -9 59 -41 70 -68 634
-810 622 -818 -221 -150 -364 -213 -563 -251 -386 -74 -759 12 -1072 247 -268
202 -456 510 -513 843 -23 131 -23 350 -1 465 47 246 152 463 316 655 57 65
184 181 198 180 4 -1 142 -179 306 -397z m960 119 c59 -41 82 -92 76 -172 -3
-36 -5 -119 -5 -185 0 -161 18 -201 144 -321 96 -92 112 -120 115 -204 1 -41
-3 -53 -29 -80 -73 -77 -190 -113 -297 -91 -93 19 -119 37 -196 137 -55 72
-73 104 -86 154 -21 83 -60 152 -110 198 -41 36 -41 37 -44 118 -5 97 13 177
65 287 50 107 123 167 226 186 58 11 95 4 141 -27z m-484 -747 c82 -109 114
-160 112 -177 -1 -12 -25 -69 -53 -126 -42 -84 -63 -113 -115 -161 -120 -110
-309 -181 -479 -182 -214 0 -351 103 -385 290 -15 82 4 123 74 166 50 30 50
30 183 27 l133 -3 74 35 c61 30 87 50 143 113 114 130 159 173 179 172 13 0
58 -52 134 -154z"/>
<path d="M2903 2822 c-24 -15 -45 -87 -46 -157 -2 -86 24 -145 88 -204 61 -56
109 -79 130 -61 26 22 17 48 -31 80 -54 38 -101 100 -110 146 -4 20 1 63 11
105 17 70 17 73 0 86 -22 15 -26 16 -42 5z"/>
<path d="M2205 2220 c-20 -28 -58 -63 -83 -78 -43 -25 -55 -27 -145 -25 -86 1
-98 -1 -107 -18 -35 -65 170 -91 279 -35 46 24 92 67 123 115 33 52 33 55 12
75 -25 26 -40 19 -79 -34z"/>
</g>
</svg>
