<?xml version="1.0" standalone="no"?>
<!DOCTYPE svg PUBLIC "-//W3C//DTD SVG 20010904//EN"
 "http://www.w3.org/TR/2001/REC-SVG-20010904/DTD/svg10.dtd">
<svg version="1.0" xmlns="http://www.w3.org/2000/svg"
 width="880.000000pt" height="680.000000pt" viewBox="0 0 880.000000 680.000000"
 preserveAspectRatio="xMidYMid meet">

<g transform="translate(0.000000,680.000000) scale(0.100000,-0.100000)"
fill="#000000" stroke="none">
<path d="M4080 6386 c-592 -70 -1104 -282 -1562 -648 -133 -106 -351 -324
-458 -458 -581 -726 -793 -1669 -580 -2575 128 -543 398 -1023 800 -1425 571
-572 1314 -880 2120 -880 806 0 1549 308 2120 880 450 450 734 998 840 1620
63 377 51 787 -35 1175 -66 299 -210 643 -383 920 l-31 50 -12 -35 c-7 -19
-36 -81 -65 -138 l-53 -103 84 -172 c323 -659 369 -1386 134 -2082 -297 -875
-1034 -1553 -1934 -1779 -933 -235 -1921 40 -2605 724 -353 353 -604 794 -724
1275 -294 1167 219 2401 1255 3020 798 477 1749 521 2597 120 l122 -58 118 55
c64 31 128 59 141 63 21 6 13 13 -70 63 -194 114 -441 220 -669 286 -148 42
-230 60 -405 88 -169 26 -574 34 -745 14z"/>
<path d="M6661 6019 c-355 -103 -551 -168 -714 -238 -371 -159 -591 -373 -700
-678 -48 -132 -69 -270 -74 -483 l-4 -195 41 75 c105 190 227 348 404 526 166
166 402 349 571 443 35 20 32 16 -25 -36 -337 -304 -507 -494 -690 -770 -152
-229 -216 -374 -660 -1490 -228 -574 -418 -1043 -421 -1043 -15 0 -481 1144
-739 1815 -78 204 -160 404 -181 446 -101 194 -270 326 -476 373 -77 17 -288
22 -311 7 -11 -6 158 -402 736 -1727 l749 -1719 219 -3 219 -2 289 672 c332
772 755 1749 845 1951 74 166 127 253 189 308 27 23 110 72 197 114 236 116
384 241 515 437 174 260 268 598 314 1133 8 93 14 170 13 171 -1 0 -139 -39
-306 -87z"/>
</g>
</svg>
