<?xml version="1.0" standalone="no"?>
<!DOCTYPE svg PUBLIC "-//W3C//DTD SVG 20010904//EN"
 "http://www.w3.org/TR/2001/REC-SVG-20010904/DTD/svg10.dtd">
<svg version="1.0" xmlns="http://www.w3.org/2000/svg"
 width="200.000000pt" height="200.000000pt" viewBox="0 0 200.000000 200.000000"
 preserveAspectRatio="xMidYMid meet">

<g transform="translate(0.000000,200.000000) scale(0.100000,-0.100000)"
fill="#000000" stroke="none">
<path d="M1340 1946 c-64 -54 -90 -92 -90 -128 0 -56 59 -77 99 -35 21 23 58
172 49 198 -2 6 -28 -9 -58 -35z"/>
<path d="M1101 1835 c-16 -107 -14 -139 10 -169 24 -31 48 -33 80 -7 41 33 32
85 -27 175 l-51 78 -12 -77z"/>
<path d="M815 1865 c-119 -26 -246 -81 -332 -144 l-42 -30 31 -56 30 -55 46
34 c116 84 258 133 415 143 107 7 99 0 111 86 l5 37 -102 -1 c-56 0 -129 -7
-162 -14z"/>
<path d="M1190 1853 c0 -5 7 -17 15 -27 14 -19 15 -19 15 7 0 17 -5 27 -15 27
-8 0 -15 -3 -15 -7z"/>
<path d="M1374 1768 l-19 -21 34 6 c18 4 41 7 50 7 11 1 8 5 -9 15 -33 19 -34
19 -56 -7z"/>
<path d="M340 1773 c0 -4 -7 -56 -16 -114 -18 -124 -10 -175 33 -208 35 -28
69 -26 100 5 41 41 30 99 -43 223 -52 90 -74 117 -74 94z"/>
<path d="M1226 1641 c-33 -107 -55 -227 -56 -300 0 -84 19 -50 31 55 10 90 36
203 64 283 18 53 18 51 2 51 -9 0 -24 -35 -41 -89z"/>
<path d="M1368 1721 c-44 -9 -67 -26 -79 -59 -13 -35 12 -72 50 -72 34 0 65
23 121 90 l42 50 -49 -1 c-26 -1 -65 -5 -85 -8z"/>
<path d="M1485 1664 l-38 -46 24 -19 24 -18 -548 -548 -548 -548 -25 30 c-40
49 -101 175 -124 255 -13 45 -23 120 -27 190 -5 97 -10 120 -28 145 -42 57
-42 59 3 52 35 -6 42 -4 47 13 5 14 -2 30 -22 53 -15 18 -35 44 -44 57 -9 14
-20 22 -24 18 -24 -23 -48 -152 -52 -288 -4 -125 -2 -158 16 -234 98 -409 454
-695 871 -698 108 -1 281 25 280 41 -1 3 -28 24 -62 45 l-60 40 -142 2 c-96 1
-160 6 -201 18 -71 19 -227 95 -270 130 l-30 25 548 548 547 548 25 -30 c41
-51 103 -177 127 -261 32 -112 32 -296 0 -408 -63 -221 -210 -397 -415 -496
l-77 -38 62 -40 63 -40 40 20 c115 58 276 208 343 321 53 88 99 205 118 296
25 127 16 327 -21 441 -53 166 -125 280 -249 398 -42 39 -80 72 -85 72 -5 0
-26 -21 -46 -46z"/>
<path d="M1020 1620 c0 -80 17 -170 36 -191 33 -36 87 -17 100 36 8 33 -17 80
-81 150 l-54 60 -1 -55z"/>
<path d="M617 1525 c-115 -112 -134 -169 -77 -227 25 -24 36 -29 58 -23 54 13
73 45 84 139 5 48 8 107 6 132 l-3 45 -68 -66z"/>
<path d="M1347 1535 c-92 -25 -133 -74 -102 -121 8 -13 19 -24 23 -24 4 0 43
36 87 80 85 85 84 90 -8 65z"/>
<path d="M256 1494 c-14 -21 -26 -42 -26 -45 0 -4 27 -16 60 -27 33 -12 60
-18 60 -14 0 3 -9 16 -21 28 -11 12 -26 39 -34 59 l-12 38 -27 -39z"/>
<path d="M146 1393 c103 -179 160 -230 224 -203 64 27 57 127 -12 170 -29 18
-208 80 -231 80 -5 0 4 -21 19 -47z"/>
<path d="M987 1333 c28 -150 52 -177 109 -122 50 49 44 71 -40 141 -38 32 -72
58 -76 58 -4 0 -1 -35 7 -77z"/>
<path d="M428 1384 c-7 -6 33 -128 82 -249 41 -104 159 -335 170 -335 25 0 17
32 -33 128 -58 113 -130 281 -167 395 -19 60 -35 78 -52 61z"/>
<path d="M721 1274 c-109 -122 -130 -198 -69 -249 37 -31 71 -28 106 11 20 23
22 35 21 132 -1 59 -4 118 -8 131 -6 23 -8 23 -50 -25z"/>
<path d="M1318 1135 c-36 -24 -68 -51 -72 -60 -12 -31 -6 -72 12 -88 47 -43
91 -3 116 106 10 43 17 80 14 82 -2 2 -34 -15 -70 -40z"/>
<path d="M970 1143 c0 -5 5 -15 10 -23 7 -12 12 -12 22 -2 10 10 10 15 -2 22
-18 12 -30 13 -30 3z"/>
<path d="M251 1074 c19 -27 63 -79 99 -116 60 -62 69 -68 106 -68 51 0 76 25
76 74 0 42 -31 89 -69 104 -38 15 -137 39 -197 48 l-49 7 34 -49z"/>
<path d="M822 999 c-79 -117 -79 -138 2 -59 64 63 74 82 58 122 -5 13 -19 -1
-60 -63z"/>
<path d="M1188 1028 c-7 -20 19 -139 54 -241 46 -139 159 -357 185 -357 19 0
17 6 -21 69 -88 145 -161 332 -187 474 -12 64 -22 81 -31 55z"/>
<path d="M1122 967 c-37 -39 -20 -55 18 -17 21 21 26 40 12 40 -5 0 -18 -10
-30 -23z"/>
<path d="M962 753 c-56 -119 -59 -163 -16 -207 64 -63 146 -5 130 94 -9 57
-55 200 -65 200 -4 0 -26 -39 -49 -87z"/>
<path d="M405 756 c27 -32 65 -71 84 -87 l36 -29 59 59 c32 32 56 64 52 70
-11 17 -75 31 -181 38 l-99 6 49 -57z"/>
<path d="M795 640 c-9 -15 32 -73 126 -179 148 -169 343 -316 542 -411 98 -47
144 -57 135 -30 -2 6 -46 30 -98 53 -233 106 -455 282 -620 492 -67 86 -74 92
-85 75z"/>
<path d="M651 495 c-22 -20 -41 -41 -41 -45 0 -5 34 -31 76 -59 89 -60 130
-66 169 -26 62 61 2 151 -109 162 -51 5 -55 4 -95 -32z"/>
</g>
</svg>
